<?xml version="1.0" encoding="UTF-8" standalone="no"?>
<!-- Created with Inkscape (http://www.inkscape.org/) -->

<svg
   width="103.69825mm"
   height="120.03051mm"
   viewBox="0 0 103.69825 120.03051"
   version="1.1"
   id="svg1"
   xmlns="http://www.w3.org/2000/svg"
   xmlns:svg="http://www.w3.org/2000/svg">
  <defs
     id="defs1" />
  <g
     id="layer2"
     transform="translate(-26.423045,-38.478931)">
    <path
       style="fill:#d40000;stroke:#aa0000;stroke-width:1.32292"
       d="M 94.779535,82.118149 C 129.50791,120.46407 137.82826,125.16687 121.18757,119.37881 104.54689,113.59074 94.779535,103.82339 94.417781,109.2497 94.056029,114.676 94.779535,82.118149 94.779535,82.118149 Z"
       id="path1" />
    <path
       style="fill:#d40000;stroke:#aa0000;stroke-width:1.32292"
       d="M 61.764609,82.462781 C 27.036424,120.8087 18.716132,125.5115 35.356729,119.72344 c 16.640574,-5.78807 26.40788,-15.55542 26.769627,-10.12911 0.361747,5.4263 -0.361747,-27.131549 -0.361747,-27.131549 z"
       id="path1-6" />
  </g>
  <g
     id="layer3"
     transform="translate(-26.423045,-38.478931)">
    <path
       style="fill:#ff6600;stroke:#d45500;stroke-width:1.32292"
       d="m 63.598453,127.77762 c 0,0 -5.426307,21.34348 3.255785,13.74665 8.682096,-7.59683 2.53228,10.12911 2.53228,10.12911 l 6.51157,-8.32034 c 0,0 -1.808768,18.44945 2.894031,13.74665 4.702802,-4.7028 2.170525,-17.36419 5.788065,-19.17296 3.617539,-1.80877 2.170522,2.89403 2.170522,2.89403 0,0 0.723509,10.85262 2.53228,10.85262 1.808768,0 9.405601,-16.27893 2.170522,-23.51401 -7.235078,-7.23507 -27.855055,-0.36175 -27.855055,-0.36175 z"
       id="path3" />
  </g>
  <g
     id="layer1"
     transform="translate(-26.423045,-38.478931)">
    <rect
       style="fill:#f9f9f9;fill-opacity:1;stroke:#cccccc;stroke-width:1.32292;stroke-dasharray:none"
       id="rect2"
       width="32.196102"
       height="62.221684"
       x="62.221684"
       y="65.477463" />
    <circle
       style="fill:#80ffe6;fill-opacity:1;stroke:#999999;stroke-width:1.32292;stroke-linecap:butt;stroke-dasharray:none"
       id="path5"
       cx="78.50061"
       cy="87.906212"
       r="9.043849" />
    <rect
       style="fill:#cccccc;stroke:#999999;stroke-width:1.32292"
       id="rect3"
       width="32.279167"
       height="17.197916"
       x="62.177082"
       y="110.59584" />
    <path
       style="fill:#d40000;stroke:#aa0000;stroke-width:1.32292"
       id="path4"
       d="m 78.592545,46.127468 15.932162,27.595316 -31.864326,0 z"
       transform="matrix(0.98317297,0,0,0.89024773,0.9843013,-1.4082158)" />
  </g>
</svg>
